<?xml version="1.0" encoding="utf-8"?>
<!-- Generator: Adobe Illustrator 26.3.1, SVG Export Plug-In . SVG Version: 6.00 Build 0)  -->
<svg version="1.1" id="レイヤー_1" xmlns="http://www.w3.org/2000/svg" xmlns:xlink="http://www.w3.org/1999/xlink" x="0px"
	 y="0px" viewBox="0 0 56 56" style="enable-background:new 0 0 56 56;" xml:space="preserve">
<polygon points="47,10 47,14 51,14 51,42 47,42 47,46 55,46 55,10 "/>
<polygon points="9,46 9,42 5,42 5,14 9,14 9,10 1,10 1,46 "/>
<g>
	<path d="M13.2,24.4c1.1-1.4,3-2,5.4-2c1.7,0,3.2,0.3,4.6,1.1c1.4,0.7,1.9,1.9,1.9,3.7v7c0,0.4,0,1.2,0,1.8c0,0.5,0.1,1,0.2,1.1
		c0.1,0.2,0.3,0.3,0.5,0.4v0.7h-4.5c-0.1-0.3-0.2-0.5-0.2-1c0-0.2-0.1-0.5-0.1-1c-0.5,0.5-1.3,1.2-1.9,1.6c-1,0.4-1.8,0.7-3,0.7
		c-1.4,0-2.4-0.4-3.4-1.3s-1.4-1.9-1.4-3.4c0-1.9,0.6-3.3,2.1-4c0.7-0.4,1.9-0.7,3.5-1.1l1.4-0.1c0.7-0.1,1.3-0.2,1.6-0.3
		c0.5-0.2,1-0.6,1-1.2c0-0.6-0.2-1.1-0.6-1.4c-0.4-0.2-1.2-0.3-1.9-0.3c-1,0-1.6,0.2-2,0.6c-0.2,0.3-0.4,0.7-0.5,1.4H12
		C12.1,26.4,12.4,25.2,13.2,24.4z M16.1,35.2c0.3,0.3,0.7,0.4,1.4,0.4c1,0,1.7-0.2,2.3-0.7c0.6-0.4,1.2-1.5,1.2-2.9v-1.5
		c-0.2,0.1-0.5,0.3-0.7,0.3c-0.2,0.1-0.5,0.2-1.1,0.2l-1,0.1c-0.7,0.1-1.5,0.3-1.8,0.5c-0.5,0.3-1,1-1,1.7
		C15.6,34.5,15.7,34.9,16.1,35.2z"/>
	<path d="M43.4,17.4v20.8h-3.9v-2.1c-0.5,1-1.3,1.6-1.9,2c-0.6,0.4-1.7,0.5-2.8,0.5c-1.8,0-3.3-0.6-4.6-2.1
		c-1.3-1.5-1.8-3.3-1.8-5.5c0-2.7,0.5-4.7,1.8-6.3c1.3-1.5,2.9-2.2,4.9-2.2c1,0,1.8,0.2,2.4,0.5c0.6,0.4,1.4,1.1,1.8,1.7v-7.3
		C39.3,17.4,43.4,17.4,43.4,17.4z M32.4,30.7c0,1.5,0.2,2.7,0.7,3.4c0.5,1,1.4,1.3,2.4,1.3c1.1,0,2-0.4,2.7-1.3c0.5-0.7,1-1.9,1-3.3
		c0-1.9-0.4-3.3-1.5-4c-0.5-0.4-1.3-0.6-2-0.6c-1.2,0-2,0.4-2.7,1.4C32.7,28.1,32.4,29.3,32.4,30.7z"/>
</g>
</svg>
