<?xml version="1.0" encoding="utf-8"?>
<!-- Generator: Adobe Illustrator 26.3.1, SVG Export Plug-In . SVG Version: 6.00 Build 0)  -->
<svg version="1.1" id="レイヤー_1" xmlns="http://www.w3.org/2000/svg" xmlns:xlink="http://www.w3.org/1999/xlink" x="0px"
	 y="0px" viewBox="0 0 56 56" style="enable-background:new 0 0 56 56;" xml:space="preserve">
<path d="M51.8,48V8c0-0.6-0.5-1-1-1H5.2c-0.6,0-1,0.4-1,1v40c0,0.5,0.4,1,1,1h45.6C51.3,49,51.8,48.5,51.8,48z M10.8,12.6h34.4
	c0.6,0,1,0.4,1,1v9.2c0,0.6-0.4,1-1,1H10.8c-0.6,0-1-0.4-1-1v-9.2C9.8,13,10.2,12.6,10.8,12.6z M12.6,15.4V21H21v-5.6H12.6z
	 M23.8,15.4V21h8.4v-5.6H23.8z M35,15.4V21h8.4v-5.6H35z M11.2,29.4c0.8,0,1.4,0.6,1.4,1.4s-0.6,1.4-1.4,1.4s-1.4-0.6-1.4-1.4
	C9.8,30,10.4,29.4,11.2,29.4z M16.4,29.4h9.2c0.6,0,1,0.4,1,1v0.8c0,0.6-0.4,1-1,1h-9.2c-0.6,0-1-0.4-1-1v-0.8
	C15.4,29.8,15.8,29.4,16.4,29.4z M33.2,29.4h12c0.6,0,1,0.4,1,1v12c0,0.6-0.4,1-1,1h-12c-0.6,0-1-0.4-1-1v-12
	C32.2,29.8,32.6,29.4,33.2,29.4z M11.2,35c0.8,0,1.4,0.6,1.4,1.4c0,0.8-0.6,1.4-1.4,1.4s-1.4-0.6-1.4-1.4S10.4,35,11.2,35z M16.4,35
	h9.2c0.6,0,1,0.4,1,1v0.8c0,0.6-0.4,1-1,1h-9.2c-0.6,0-1-0.4-1-1V36C15.4,35.4,15.8,35,16.4,35z M11.2,40.6c0.8,0,1.4,0.6,1.4,1.4
	s-0.6,1.4-1.4,1.4S9.8,42.8,9.8,42S10.4,40.6,11.2,40.6z M16.4,40.6h9.2c0.6,0,1,0.4,1,1v0.8c0,0.6-0.4,1-1,1h-9.2c-0.6,0-1-0.4-1-1
	v-0.8C15.4,41,15.8,40.6,16.4,40.6z"/>
</svg>
