<?xml version="1.0" encoding="utf-8"?>
<!-- Generator: Adobe Illustrator 24.3.0, SVG Export Plug-In . SVG Version: 6.00 Build 0)  -->
<svg version="1.1" id="レイヤー_1" xmlns="http://www.w3.org/2000/svg" xmlns:xlink="http://www.w3.org/1999/xlink" x="0px"
	 y="0px" viewBox="0 0 56 56" style="enable-background:new 0 0 56 56;" xml:space="preserve">
<style type="text/css">
	.st0{fill:#01374B;}
	.st1{fill:url(#SVGID_1_);}
	.st2{fill:url(#SVGID_2_);}
	.st3{fill:none;}
</style>
<g>
	<g>
		<circle class="st0" cx="6.99" cy="22.75" r="2.85"/>
		<g>
			
				<radialGradient id="SVGID_1_" cx="11.9852" cy="33.1897" r="46.1501" gradientTransform="matrix(0.9495 -0.1812 0.154 0.807 -3.9732 8.4039)" gradientUnits="userSpaceOnUse">
				<stop  offset="0.1982" style="stop-color:#01374B"/>
				<stop  offset="0.5464" style="stop-color:#013548"/>
				<stop  offset="0.7546" style="stop-color:#012D40"/>
				<stop  offset="0.9256" style="stop-color:#002132"/>
				<stop  offset="1" style="stop-color:#001929"/>
			</radialGradient>
			<path class="st1" d="M50.28,17.44c5.02,14.36-16.44,23.69-42.64,15.4c-0.99-0.26-2.01-0.61-3.04-1.03
				C7.23,42.38,16.86,50.18,28.28,50c13.05-0.21,23.63-11.01,23.58-24.06C51.85,22.94,51.5,19.99,50.28,17.44z"/>
		</g>
		<g>
			<linearGradient id="SVGID_2_" gradientUnits="userSpaceOnUse" x1="16.8993" y1="44.1435" x2="38.3346" y2="18.1648">
				<stop  offset="0.131" style="stop-color:#000521"/>
				<stop  offset="0.4029" style="stop-color:#01283E"/>
				<stop  offset="0.5599" style="stop-color:#01374B"/>
				<stop  offset="0.7371" style="stop-color:#013C53"/>
				<stop  offset="1" style="stop-color:#004B67"/>
			</linearGradient>
			<path class="st2" d="M41.07,13.11c-4.82,0.92-7.24,3.85-10.43,7.89c-3.6,4.56-7.32,9.27-12.54,11.38
				c-1.83,0.74-3.75,1.11-5.74,1.11c-1.52,0-3.09-0.22-4.71-0.65c26.2,8.29,47.66-1.04,42.64-15.4
				C48.89,14.51,45.32,12.29,41.07,13.11z"/>
		</g>
	</g>
	<circle class="st3" cx="28" cy="26" r="24"/>
</g>
<g>
	<g>
		<circle class="st0" cx="6.99" cy="22.75" r="2.85"/>
		<path class="st0" d="M50.28,17.44c-1.4-2.93-4.96-5.15-9.21-4.34c-4.82,0.92-7.24,3.85-10.43,7.89
			c-3.6,4.56-7.32,9.27-12.54,11.38c-1.83,0.74-3.75,1.11-5.74,1.11c-1.52,0-3.09-0.22-4.71-0.65c-0.99-0.26-2.01-0.61-3.04-1.03
			C7.23,42.38,16.86,50.18,28.28,50c13.05-0.21,23.63-11.01,23.58-24.06C51.85,22.94,51.5,19.99,50.28,17.44z"/>
	</g>
	<circle class="st3" cx="28" cy="26" r="24"/>
</g>
</svg>
