<?xml version="1.0" encoding="utf-8"?>
<!-- Generator: Adobe Illustrator 26.0.1, SVG Export Plug-In . SVG Version: 6.00 Build 0)  -->
<svg version="1.1" id="レイヤー_1" xmlns="http://www.w3.org/2000/svg" xmlns:xlink="http://www.w3.org/1999/xlink" x="0px"
	 y="0px" viewBox="0 0 56 56" style="enable-background:new 0 0 56 56;" xml:space="preserve">
<path d="M51,48H5c-0.6,0-1-0.4-1-1V9c0-0.6,0.4-1,1-1h46c0.6,0,1,0.4,1,1v38C52,47.6,51.6,48,51,48z M6,46h44V10H6V46z"/>
<g>
	<path d="M32.2,33.7h-8.4c-0.7,0-1.4-0.4-1.7-1l-4.2-7.3c-0.4-0.6-0.4-1.4,0-2l4.2-7.3c0.4-0.6,1-1,1.7-1h8.4c0.7,0,1.4,0.4,1.7,1
		l4.2,7.3c0.4,0.6,0.4,1.4,0,2l-4.2,7.3C33.6,33.3,32.9,33.7,32.2,33.7z M25.5,30.7h5c0.7,0,1.4-0.4,1.7-1l2.5-4.3
		c0.4-0.6,0.4-1.4,0-2l-2.5-4.3c-0.4-0.6-1-1-1.7-1h-5c-0.7,0-1.4,0.4-1.7,1l-2.5,4.3c-0.4,0.6-0.4,1.4,0,2l2.5,4.3
		C24.1,30.3,24.8,30.7,25.5,30.7z"/>
	<g>
		<path d="M36.5,37.9h-17c-0.8,0-1.5,0.7-1.5,1.5v0c0,0.8,0.7,1.5,1.5,1.5h17c0.8,0,1.5-0.7,1.5-1.5v0C38,38.6,37.3,37.9,36.5,37.9z
			"/>
	</g>
</g>
</svg>
