<?xml version="1.0" encoding="utf-8"?>
<!-- Generator: Adobe Illustrator 26.0.1, SVG Export Plug-In . SVG Version: 6.00 Build 0)  -->
<svg version="1.1" id="レイヤー_1" xmlns="http://www.w3.org/2000/svg" xmlns:xlink="http://www.w3.org/1999/xlink" x="0px"
	 y="0px" viewBox="0 0 56 56" style="enable-background:new 0 0 56 56;" xml:space="preserve">
<g>
	<path d="M1,6v44c0,0.6,0.4,1,1,1h52c0.6,0,1-0.4,1-1V6c0-0.6-0.4-1-1-1H2C1.4,5,1,5.4,1,6z M3,7h24v20H3V7z M27,49H3V29h24V49z
		 M53,49H29V29h24V49z M29,27V7h24v20H29z"/>
	<g>
		<path d="M19.2,23.1h-8.5c-0.4,0-0.8,0.3-0.8,0.8c0,0.4,0.3,0.8,0.8,0.8h8.5c0.4,0,0.8-0.3,0.8-0.8S19.7,23.1,19.2,23.1z"/>
		<path d="M11.5,19.5c0.2,0.4,0.6,0.6,1.1,0.6h4.7c0.5,0,0.9-0.2,1.1-0.6l2.4-4.1c0.2-0.4,0.2-0.9,0-1.3L18.4,10
			c-0.2-0.4-0.6-0.6-1.1-0.6h-4.7c-0.5,0-0.9,0.2-1.1,0.6l-2.4,4.1c-0.2,0.4-0.2,0.9,0,1.3L11.5,19.5z"/>
	</g>
	<g>
		<path d="M45.2,23.1h-8.5c-0.4,0-0.8,0.3-0.8,0.8c0,0.4,0.3,0.8,0.8,0.8h8.5c0.4,0,0.8-0.3,0.8-0.8S45.7,23.1,45.2,23.1z"/>
		<path d="M37.5,19.6c0.2,0.4,0.6,0.6,1.1,0.6h4.7c0.5,0,0.9-0.2,1.1-0.6l2.4-4.1c0.2-0.4,0.2-0.9,0-1.3l-2.4-4.1
			c-0.2-0.4-0.6-0.6-1.1-0.6h-4.7c-0.5,0-0.9,0.2-1.1,0.6l-2.4,4.1c-0.2,0.4-0.2,0.9,0,1.3L37.5,19.6z"/>
	</g>
	<g>
		<path d="M45.2,45.1h-8.5c-0.4,0-0.8,0.3-0.8,0.8c0,0.4,0.3,0.8,0.8,0.8h8.5c0.4,0,0.8-0.3,0.8-0.8C46,45.4,45.7,45.1,45.2,45.1z"
			/>
		<path d="M37.5,41.5c0.2,0.4,0.6,0.6,1.1,0.6h4.7c0.5,0,0.9-0.2,1.1-0.6l2.4-4.1c0.2-0.4,0.2-0.9,0-1.3L44.4,32
			c-0.2-0.4-0.6-0.6-1.1-0.6h-4.7c-0.5,0-0.9,0.2-1.1,0.6l-2.4,4.1c-0.2,0.4-0.2,0.9,0,1.3L37.5,41.5z"/>
	</g>
	<g>
		<path d="M19.2,45.1h-8.5c-0.4,0-0.8,0.3-0.8,0.8c0,0.4,0.3,0.8,0.8,0.8h8.5c0.4,0,0.8-0.3,0.8-0.8C20,45.4,19.7,45.1,19.2,45.1z"
			/>
		<path d="M11.5,41.5c0.2,0.4,0.6,0.6,1.1,0.6h4.7c0.5,0,0.9-0.2,1.1-0.6l2.4-4.1c0.2-0.4,0.2-0.9,0-1.3L18.4,32
			c-0.2-0.4-0.6-0.6-1.1-0.6h-4.7c-0.5,0-0.9,0.2-1.1,0.6l-2.4,4.1c-0.2,0.4-0.2,0.9,0,1.3L11.5,41.5z"/>
	</g>
</g>
</svg>
