<?xml version="1.0" encoding="utf-8"?>
<!-- Generator: Adobe Illustrator 26.0.1, SVG Export Plug-In . SVG Version: 6.00 Build 0)  -->
<svg version="1.1" id="レイヤー_1" xmlns="http://www.w3.org/2000/svg" xmlns:xlink="http://www.w3.org/1999/xlink" x="0px"
	 y="0px" viewBox="0 0 56 56" style="enable-background:new 0 0 56 56;" xml:space="preserve">
<g>
	<path d="M27.2,27.6V5H2C1.4,5,1,5.4,1,6v21.6H27.2z M18.2,23.7H9.7c-0.5,0-0.8-0.4-0.8-0.8c0-0.5,0.4-0.8,0.8-0.8h8.5
		c0.5,0,0.8,0.3,0.8,0.8S18.6,23.7,18.2,23.7z M8.1,13.1L10.5,9c0.2-0.4,0.6-0.6,1.1-0.6h4.7c0.5,0,0.9,0.2,1.1,0.6l2.4,4.1
		c0.2,0.4,0.2,0.9,0,1.3l-2.4,4.1c-0.2,0.4-0.6,0.6-1.1,0.6h-4.7c-0.5,0-0.9-0.2-1.1-0.6l-2.4-4.1C7.9,14,7.9,13.5,8.1,13.1z"/>
	<path d="M28.2,27.6H55V6c0-0.6-0.4-1-1-1H28.2V27.6z M46.2,23.7h-8.5c-0.5,0-0.8-0.4-0.8-0.8c0-0.5,0.4-0.8,0.8-0.8h8.5
		c0.5,0,0.8,0.3,0.8,0.8S46.6,23.7,46.2,23.7z M38.5,9.1c0.2-0.4,0.6-0.6,1.1-0.6h4.7c0.5,0,0.9,0.2,1.1,0.6l2.4,4.1
		c0.2,0.4,0.2,0.9,0,1.3l-2.4,4.1c-0.2,0.4-0.6,0.6-1.1,0.6h-4.7c-0.5,0-0.9-0.2-1.1-0.6l-2.4-4.1c-0.2-0.4-0.2-0.9,0-1.3L38.5,9.1z
		"/>
	<path d="M27.2,28.6H1V50c0,0.6,0.4,1,1,1h25.2V28.6z M18.2,47.7H9.7c-0.5,0-0.8-0.4-0.8-0.8c0-0.5,0.4-0.8,0.8-0.8h8.5
		c0.5,0,0.8,0.3,0.8,0.8S18.6,47.7,18.2,47.7z M17.4,42.5c-0.2,0.4-0.6,0.6-1.1,0.6h-4.7c-0.5,0-0.9-0.2-1.1-0.6l-2.4-4.1
		c-0.2-0.4-0.2-0.9,0-1.3l2.4-4.1c0.2-0.4,0.6-0.6,1.1-0.6h4.7c0.5,0,0.9,0.2,1.1,0.6l2.4,4.1c0.2,0.4,0.2,0.9,0,1.3L17.4,42.5z"/>
	<path d="M28.2,28.6V51H54c0.6,0,1-0.4,1-1V28.6H28.2z M46.2,47.7h-8.5c-0.5,0-0.8-0.4-0.8-0.8c0-0.5,0.4-0.8,0.8-0.8h8.5
		c0.5,0,0.8,0.3,0.8,0.8S46.6,47.7,46.2,47.7z M47.8,38.4l-2.4,4.1c-0.2,0.4-0.6,0.6-1.1,0.6h-4.7c-0.5,0-0.9-0.2-1.1-0.6l-2.4-4.1
		c-0.2-0.4-0.2-0.9,0-1.3l2.4-4.1c0.2-0.4,0.6-0.6,1.1-0.6h4.7c0.5,0,0.9,0.2,1.1,0.6l2.4,4.1C48,37.5,48,38,47.8,38.4z"/>
</g>
</svg>
